name processed_emg_signals
nRows=37
nColumns=7
 
endheader
time	LGLTMED	LRF	LADDLONG	LBF	LTA	LGM
2.1751999999999985	0.42157251638352	0.5339213861727375	0.6347983174273073	0.3745466148900064	0.9049805715045154	0.5765713402136654
2.1851999999999983	0.4209579991497845	0.5354652746573716	0.6377753595077014	0.3747472223357531	0.904353517244455	0.5754522816448387
2.1951999999999985	0.4203258466170291	0.5370258312745242	0.640876626627915	0.3749815307862704	0.9037185517005376	0.5743391105727533
2.2051999999999983	0.4196762173356776	0.538601728545499	0.6440996214717983	0.3752494439047253	0.9030741528191248	0.5732336004849619
2.215199999999998	0.4190093323513812	0.540191645244692	0.6474417615016969	0.3755508106088417	0.9024188612120309	0.5721374927577206
2.2251999999999983	0.4183254742307936	0.5417942672504913	0.6509003827189538	0.375885423950501	0.9017512884262396	0.5710524927137162
2.235199999999998	0.4176249860414006	0.5434082884154631	0.6544727433372388	0.3762530202127438	0.9010701249059208	0.569980265899736
2.2451999999999983	0.4169082702922302	0.5450324114595292	0.6581560273562927	0.3766532782302954	0.9003741475948698	0.5689224345922272
2.255199999999998	0.4161757878418897	0.5466653488891208	0.6619473480254664	0.377085818938804	0.8996622271278657	0.5678805745376707
2.2651999999999983	0.4154280567797536	0.5483058239441256	0.6658437511883001	0.377550205157366	0.8989333345609569	0.5668562119335623
2.275199999999998	0.4146656512858842	0.5499525715733263	0.669842218500616	0.3780459416077328	0.8981865475939718	0.565850820655195
2.2851999999999983	0.4138892004749077	0.5516043394381759	0.6739396705170733	0.3785724751723505	0.8974210562424053	0.5648658197327003
2.295199999999998	0.4130993872290686	0.5532598889442031	0.6781329696432846	0.3791291953921751	0.8966361679195549	0.563902571082088
2.3051999999999984	0.4122969470255144	0.5549179962989885	0.6824189229534121	0.3797154352035887	0.8958313118924964	0.56296237749327
2.315199999999998	0.4114826667628354	0.5565774535953392	0.6867942848751376	0.3803304719127132	0.8950060430775776	0.5620464808771114
2.3251999999999984	0.4106573835914376	0.5582370699175361	0.6912557597449827	0.3809735284038882	0.8941600451450019	0.561156060772541
2.335199999999998	0.4098219837520346	0.5598956724683863	0.6958000042373718	0.381643774577995	0.893293132909039	0.5602922331139409
2.3451999999999984	0.4089774014261668	0.5615521077144623	0.7004236296708893	0.3823403290153034	0.8924052539916726	0.5594560492586228
2.355199999999998	0.4081246176020555	0.5632052425469332	0.7051232041951745	0.3830622608563256	0.8914964897597131	0.5586484952738227
2.365199999999998	0.4072646589583343	0.5648539654554079	0.709895254862239	0.3838085918937775	0.8905670555458396	0.5578704914823926
2.375199999999998	0.4063985967668185	0.5664971877128526	0.7147362695863857	0.3845782988678218	0.8896173001708885	0.5571228922653312
2.385199999999998	0.4055275458142925	0.5681338445710271	0.7196426989970545	0.3853703159564041	0.888647704788109	0.5564064861183659
2.395199999999998	0.4046526633421834	0.5697628964671568	0.7246109581888605	0.3861835374516457	0.8876588810718068	0.5557219959581109
2.405199999999998	0.4037751480023019	0.5713833302432902	0.7296374283726399	0.3870168206123713	0.886651568773902	0.555070079671962
2.4151999999999982	0.4028962388262758	0.5729941603791319	0.7347184584310252	0.3878689886820848	0.8856266326733343	0.5544513309043811
2.425199999999998	0.4020172142058356	0.5745944302385154	0.7398503663810357	0.3887388340605406	0.8845850589455355	0.5538662800706486
2.4351999999999983	0.401139390880501	0.5761832133287006	0.7450294407445922	0.3896251216163925	0.8835279509817682	0.553315395587568
2.445199999999998	0.4002641229285282	0.5777596145710929	0.7502519418259294	0.3905265921274591	0.8824565246900885	0.5527990853091138
2.4551999999999983	0.3993928007563534	0.5793227715816541	0.7555141028931619	0.3914419658344855	0.8813721033105499	0.552317698152991
2.465199999999998	0.3985268500809263	0.5808718559584239	0.7608121312612213	0.3923699460935476	0.8802761117762004	0.5518715259027923
2.4751999999999983	0.3976677308989346	0.5824060745726766	0.7661422092754208	0.3933092231114667	0.8791700706496841	0.5514608051688954
2.485199999999998	0.3968169364359493	0.5839246708589538	0.7715004951991301	0.3942584777477144	0.8780555896631678	0.5510857194906874
2.495199999999998	0.3959759920679717	0.5854269260983536	0.7768831240145646	0.3952163853659601	0.8769343608884739	0.5507464015621
2.505199999999998	0.3951464542068363	0.5869121606884716	0.7822862081518198	0.3961816197178895	0.8758081515644535	0.5504429355619109
2.515199999999998	0.3943299091400576	0.5883797353931127	0.7877058381666872	0.3971528568420153	0.8746787966106293	0.5501753595693933
2.525199999999998	0.393527971814822	0.5898290525636913	0.7931380833919394	0.3981287789597264	0.8735481908591636	0.5499436680449318
2.535199999999998	0.3927422845547236	0.5912595573235512	0.7985789925898833	0.3991080783505006	0.8724182810409942	0.5497478143549803
